<svg width="110" height="80" viewBox="0 0 110 80" fill="none" xmlns="http://www.w3.org/2000/svg">
<path d="M84.5003 0.708008C76.0928 0.708008 70.9795 2.33664 68.0295 3.71851C64.2437 1.84311 59.917 0.708008 55.0003 0.708008C50.0837 0.708008 45.757 1.84311 41.9712 3.71851C39.0212 2.33664 33.9078 0.708008 25.5003 0.708008C10.7503 0.708008 0.916992 40.19 0.916992 50.0604C0.916992 54.1567 7.40699 57.9075 16.3553 59.4374C19.502 70.4923 34.3503 78.9316 52.542 79.6719V58.5491C49.6412 56.723 45.167 53.4164 45.167 50.0604C45.167 45.1252 55.0003 45.1252 55.0003 45.1252C55.0003 45.1252 64.8337 45.1252 64.8337 50.0604C64.8337 53.4164 60.3595 56.723 57.4587 58.5491V79.6719C75.6503 78.9316 90.4987 70.4923 93.6453 59.4374C102.594 57.9075 109.084 54.1567 109.084 50.0604C109.084 40.19 99.2503 0.708008 84.5003 0.708008ZM16.4045 49.4189C13.9462 48.8266 12.0287 48.1357 10.7503 47.5928C11.9795 33.9222 21.567 12.5526 25.7462 10.5785C28.4012 10.5785 30.417 10.8746 32.2362 11.1214C21.9112 22.5218 17.8303 40.3874 16.4045 49.4189ZM40.2503 40.19C38.9463 40.19 37.6958 39.67 36.7737 38.7445C35.8517 37.8189 35.3337 36.5636 35.3337 35.2547C35.3337 32.5897 37.5462 30.3195 40.2503 30.3195C41.5543 30.3195 42.8049 30.8394 43.7269 31.765C44.649 32.6905 45.167 33.9458 45.167 35.2547C45.167 38.0184 42.9545 40.19 40.2503 40.19ZM69.7503 40.19C68.4463 40.19 67.1958 39.67 66.2737 38.7445C65.3517 37.8189 64.8337 36.5636 64.8337 35.2547C64.8337 32.5897 67.0462 30.3195 69.7503 30.3195C71.0543 30.3195 72.3049 30.8394 73.2269 31.765C74.149 32.6905 74.667 33.9458 74.667 35.2547C74.667 38.0184 72.4545 40.19 69.7503 40.19ZM93.5962 49.4189C92.1703 40.3874 88.0895 22.5218 77.7645 11.1214C79.5836 10.8746 81.5995 10.5785 84.2545 10.5785C88.4337 12.5526 98.0212 33.9222 99.2503 47.5928C98.0212 48.1357 96.1037 48.8266 93.5962 49.4189Z" fill="#666666"/>
</svg>
